<?xml version="1.0" encoding="UTF-8"?>
<svg id="Calque_1" data-name="Calque 1" xmlns="http://www.w3.org/2000/svg" viewBox="0 0 253.21 279.46">
  <defs>
    <style>
      .cls-1 {
        fill: #bc3365;
      }
    </style>
  </defs>
  <g id="LOGOMARK-BLANC">
    <path class="cls-1" d="M173.98,105.38c-.76-.76-1.79-1.19-2.86-1.19s-2.1.43-2.86,1.19l-21.85,21.86c1.79-6.09,2.72-12.47,2.72-18.99,0-5.9-.77-11.77-2.3-17.43-3.03-11.28-9.01-21.62-17.3-29.91-1.58-1.58-4.14-1.58-5.72,0,0,0-43.8,43.69-44.53,44.42-12.66,12.66-19.63,29.49-19.63,47.39s6.92,34.61,19.5,47.26c.04.05.09.1.14.15.86.85,1.65,1.61,2.42,2.3,12.29,11.13,28.21,17.28,44.81,17.32h.15s0,0,0,0c16.63,0,32.57-6.13,44.9-17.27.05-.05.1-.09.15-.14l2.27-2.27c12.65-12.64,19.61-29.45,19.61-47.33s-6.96-34.69-19.61-47.34ZM101.27,205.91c-5.11-2.44-9.88-5.62-14.16-9.49-.64-.58-1.31-1.22-2.04-1.93-.04-.04-.08-.08-.12-.12-11.12-11.12-17.24-25.91-17.24-41.64s6.13-30.54,17.26-41.66c.61-.61,31.71-31.63,41.56-41.46,5.86,6.73,10.14,14.72,12.45,23.33,1.34,4.98,2.02,10.13,2.02,15.32,0,15.56-6,30.21-16.92,41.29-.13.1-.25.21-.36.32l-19.13,19.14s-.07.07-.1.11c-5.19,5.58-8.05,12.86-8.05,20.5,0,6,1.77,11.61,4.81,16.31ZM126.65,211.64h-.02s-.07,0-.11,0c-12.12-.04-21.97-9.93-21.97-22.04,0-5.56,2.07-10.86,5.83-14.93l16.21-16.22,16.19,16.19c3.78,4.08,5.86,9.39,5.86,14.96,0,12.13-9.86,22.02-21.99,22.04ZM168.25,194.32l-2.2,2.2c-4.28,3.85-9.04,7.01-14.15,9.44,3.06-4.72,4.84-10.34,4.84-16.37,0-7.65-2.87-14.94-8.08-20.53-.03-.03-.07-.07-.1-.1l-16.22-16.22,38.67-38.67c9.36,10.71,14.47,24.29,14.47,38.65,0,15.72-6.12,30.49-17.24,41.61Z"/>
  </g>
</svg>
